<?xml version="1.0" encoding="UTF-8" standalone="no"?><!DOCTYPE svg PUBLIC "-//W3C//DTD SVG 1.1//EN" "http://www.w3.org/Graphics/SVG/1.1/DTD/svg11.dtd"><svg width="100%" height="100%" viewBox="0 0 3438 827" version="1.1" xmlns="http://www.w3.org/2000/svg" xmlns:xlink="http://www.w3.org/1999/xlink" xml:space="preserve" xmlns:serif="http://www.serif.com/" style="fill-rule:evenodd;clip-rule:evenodd;stroke-linejoin:round;stroke-miterlimit:1.41421;"><rect id="Artboard1" x="0" y="0" width="3437.36" height="826.082" style="fill:none;"/><g><text x="738.083px" y="532.394px" style="font-family:'SegoeUI', 'Segoe UI', sans-serif;font-size:333.333px;fill:#231f20;">Learn<tspan x="1543.42px " y="532.394px ">i</tspan>r</text><text x="2027.67px" y="529.484px" style="font-family:'SegoeUI-Light', 'Segoe UI', sans-serif;font-weight:300;font-size:333.333px;fill:#231f20;">Academy</text><rect x="1834.27" y="302.929" width="20.202" height="244.492" style="fill:#bb41ff;"/></g><path id="Artboard11" serif:id="Artboard1" d="M658.983,291.998c0,-60.404 -49.039,-109.443 -109.443,-109.443l-218.886,0c-60.403,0 -109.443,49.039 -109.443,109.443l0,218.886c0,60.403 49.04,109.443 109.443,109.443l218.886,0c60.404,0 109.443,-49.04 109.443,-109.443l0,-218.886Z" style="fill:#bb41ff;"/><clipPath id="_clip1"><path id="Artboard12" serif:id="Artboard1" d="M658.983,291.998c0,-60.404 -49.039,-109.443 -109.443,-109.443l-218.886,0c-60.403,0 -109.443,49.039 -109.443,109.443l0,218.886c0,60.403 49.04,109.443 109.443,109.443l218.886,0c60.404,0 109.443,-49.04 109.443,-109.443l0,-218.886Z"/></clipPath><g clip-path="url(#_clip1)"><path d="M560.7,470.483c0.02,-28.57 -23.125,-51.758 -51.696,-51.78c-28.572,0.022 -51.718,23.21 -51.695,51.78l0,51.803l51.695,0c28.571,-0.022 51.716,-23.21 51.696,-51.803Zm-137.835,0l0,-138.107c0.021,-28.552 -23.102,-51.739 -51.674,-51.781c-28.573,0.021 -51.717,23.208 -51.696,51.781l0,138.107c-0.042,28.573 23.102,51.76 51.675,51.803c28.572,-0.022 51.716,-23.21 51.695,-51.803Z" style="fill:#fff;"/></g></svg>